<?xml version="1.0" encoding="iso-8859-1"?>
<!-- Generator: Adobe Illustrator 19.0.0, SVG Export Plug-In . SVG Version: 6.00 Build 0)  -->
<svg version="1.1" id="Capa_1" xmlns="http://www.w3.org/2000/svg" xmlns:xlink="http://www.w3.org/1999/xlink" x="0px" y="0px"
	 viewBox="0 0 512 512" style="enable-background:new 0 0 512 512;" xml:space="preserve">
<g>
	<g>
		<path d="M465.597,197.872c-64.1-66.074-61.694-64.624-68.707-68.275c-9.684-5.059-5.748-2.202-136.063-20.288
			c-6.611-0.882,4.503-1.803-133.76,16.589c-3.948,0.527-7.943,1.773-11.642,3.699c-7.128,3.71-5.061,2.607-68.708,68.275
			c-11.806,12.182-13.452,31.214-3.247,45.328c0.117,0.161,185.16,256.347,189.484,260.131c11.635,10.2,28.826,11.55,42.055,3.247
			c7.687-4.867,4.539-1.969,59.599-78.004c2.448-3.378,1.692-8.103-1.688-10.549c-3.378-2.448-8.102-1.693-10.549,1.688
			c-27.531,38.018-13.398,18.501-42.078,58.105l77.434-221.788c11.394-2.726,92.273-22.071,100.299-23.99
			c-1.224,2.266,5.077-6.673-114.96,159.09c-2.448,3.378-1.692,8.103,1.688,10.549c3.378,2.448,8.101,1.694,10.549-1.688
			C478.275,230.179,470.216,241.79,472.291,237.32c0.504-1.086,0.934-2.156,1.233-3.012
			C477.324,223.649,474.99,207.559,465.597,197.872z M239.813,126.11l-77.247,107.515l-33.747-92.705
			C130.11,140.73,214.192,129.527,239.813,126.11z M115.53,148.584l32.924,90.445c-10.904-2.608-86.171-20.61-95.575-22.859
			C55.632,207.705,58.567,208.618,115.53,148.584z M180.509,330.284L232.02,477.82c-0.074-0.101-176.737-243.932-177.732-245.778
			c8.026,1.92,88.9,21.264,100.298,23.99l14.302,40.965c1.375,3.939,5.678,6.019,9.624,4.643c3.938-1.375,6.018-5.684,4.642-9.623
			L170.997,257.2h77.604v222.271l-53.827-154.169c-1.376-3.938-5.684-6.016-9.624-4.642
			C181.212,322.035,179.133,326.345,180.509,330.284z M248.602,242.091h-73.513l73.513-102.319V242.091z M263.711,479.474V257.199
			h77.605L263.711,479.474z M349.748,233.625l-30.41-42.325c-2.435-3.391-7.157-4.164-10.543-1.727
			c-3.389,2.435-4.162,7.156-1.728,10.543l30.158,41.975h-73.514V139.771l22.772,31.693c2.434,3.388,7.155,4.162,10.543,1.727
			c3.389-2.435,4.162-7.156,1.728-10.543l-26.253-36.539c24.183,3.226,109.529,14.596,110.994,14.81L349.748,233.625z
			 M363.859,239.03l32.924-90.445c60.962,62.941,60.58,61.22,62.649,67.585C450.029,218.419,374.763,236.422,363.859,239.03z"/>
	</g>
</g>
<g>
	<g>
		<path d="M355.219,11.294c-3.946-1.369-8.246,0.717-9.617,4.657l-0.33,0.951c-1.712,4.93,1.971,10.037,7.137,10.037
			c6.156,0,7.346-5.859,7.467-6.028C361.245,16.969,359.16,12.664,355.219,11.294z"/>
	</g>
</g>
<g>
	<g>
		<path d="M331.436,79.809c-3.945-1.368-8.246,0.716-9.617,4.657l-0.33,0.951c-1.713,4.93,1.971,10.037,7.137,10.037
			c6.157,0,7.345-5.859,7.467-6.028C337.462,85.484,335.377,81.178,331.436,79.809z"/>
	</g>
</g>
<g>
	<g>
		<path d="M343.324,45.551c-3.942-1.372-8.248,0.717-9.614,4.66l-0.33,0.952c-1.713,4.937,1.982,10.034,7.137,10.034
			c6.157,0,7.345-5.862,7.467-6.032C349.352,51.223,347.266,46.919,343.324,45.551z"/>
	</g>
</g>
<g>
	<g>
		<path d="M421.948,68.74c-3.329-2.523-8.063-1.872-10.586,1.453l-0.609,0.803c-3.79,4.999-0.161,12.121,6.013,12.121
			C423.622,83.116,428.227,73.504,421.948,68.74z"/>
	</g>
</g>
<g>
	<g>
		<path d="M400.021,97.622c-3.328-2.523-8.064-1.871-10.586,1.453l-0.608,0.803c-3.791,5-0.162,12.121,6.013,12.121
			C401.697,111.998,406.3,102.386,400.021,97.622z"/>
	</g>
</g>
<g>
	<g>
		<path d="M256.156,72.525c-4.173,0-7.555,3.381-7.555,7.555v1.007c0,4.173,3.383,7.555,7.555,7.555
			C266.23,88.641,266.263,72.525,256.156,72.525z"/>
	</g>
</g>
<g>
	<g>
		<path d="M256.156,36.262c-4.173,0-7.555,3.381-7.555,7.555v1.007c0,4.173,3.383,7.555,7.555,7.555
			C266.23,52.379,266.263,36.262,256.156,36.262z"/>
	</g>
</g>
<g>
	<g>
		<path d="M256.156,0c-4.173,0-7.555,3.381-7.555,7.555v1.007c0,4.173,3.383,7.555,7.555,7.555c4.173,0,7.555-3.381,7.555-7.555
			V7.555C263.711,3.381,260.33,0,256.156,0z"/>
	</g>
</g>
<g>
	<g>
		<path d="M178.933,51.162l-0.33-0.952c-1.367-3.943-5.674-6.032-9.614-4.66c-3.942,1.368-6.028,5.672-4.66,9.614l0.33,0.952
			c1.373,3.958,5.693,6.025,9.614,4.66C178.214,59.408,180.3,55.104,178.933,51.162z"/>
	</g>
</g>
<g>
	<g>
		<path d="M190.825,85.415l-0.33-0.951c-1.37-3.941-5.673-6.022-9.617-4.657c-3.941,1.371-6.027,5.675-4.657,9.617l0.33,0.951
			c1.085,3.121,4.009,5.077,7.137,5.077c0.822,0,1.658-0.136,2.48-0.42C190.108,93.662,192.194,89.357,190.825,85.415z"/>
	</g>
</g>
<g>
	<g>
		<path d="M167.042,16.901l-0.33-0.951c-1.37-3.942-5.672-6.023-9.617-4.657c-3.94,1.37-6.026,5.675-4.657,9.617
			c0.073,0.101,1.397,6.028,7.467,6.028C165.079,26.938,168.75,21.82,167.042,16.901z"/>
	</g>
</g>
<g>
	<g>
		<path d="M101.557,70.993l-0.608-0.802c-2.523-3.321-7.263-3.971-10.586-1.447s-3.97,7.263-1.446,10.586
			c0.255,0.223,2.138,3.787,6.63,3.787C101.711,83.116,105.358,76,101.557,70.993z"/>
	</g>
</g>
<g>
	<g>
		<path d="M123.484,99.879l-0.608-0.803c-2.521-3.323-7.26-3.975-10.586-1.453c-3.324,2.522-3.974,7.261-1.453,10.586l0.609,0.802
			c1.487,1.958,3.742,2.989,6.025,2.989c1.591,0,3.195-0.5,4.56-1.535C125.356,107.942,126.006,103.204,123.484,99.879z"/>
	</g>
</g>
<g>
</g>
<g>
</g>
<g>
</g>
<g>
</g>
<g>
</g>
<g>
</g>
<g>
</g>
<g>
</g>
<g>
</g>
<g>
</g>
<g>
</g>
<g>
</g>
<g>
</g>
<g>
</g>
<g>
</g>
</svg>
